<svg xmlns="http://www.w3.org/2000/svg" viewBox="0 0 1099.1 269.49"><defs><style>.a{fill:none}.b{fill:#88a727}.c{fill:#6d0f38}.d{fill:#7a797d}.e{clip-path:url(#a)}.f{fill:#9b989e}.g{fill:#fff}.h{fill:#97959b}</style><clipPath id="a"><path class="a" d="M0 .2h269.31v269.3H0z"/></clipPath></defs><title>logoArtboard 1</title><path class="b" d="M.01.2h269.3v269.3H.01z"/><path class="c" d="M.01.2h269.3v269.3H.01z"/><path class="d" d="M0 118.39v54.77l93.24 40.05 10.63-24.76L26 125.27l39.2-17.63-21.74-14.02L0 118.39z"/><g class="e"><path class="f" d="M163 51.21a583 583 0 0 0 54.36-39.16c-3.91 7.72-8.71 16.17-12.82 24.37-6.31 13.33-12.63 26.66-18.44 40.2q-1.92 4.24-3.82 8.47l28.37 12.18L255.46-7l-29.21-12.54-155 96 20.91 19.9zm35.18 75.11l-28.87-12.39c-6.22 13.94-12.37 27.83-18.3 41.67l-19.26 44.83h-.1L121 225.15h.09l-33.7 78.49 29.21 12.55 33.71-78.46 46 19.78L207 225.57l-37.31-21.32z"/><path class="f" d="M169.31 113.93l23.39-10.14 1.58 19.3-10.92 9.22-6.82-1.37-7.23-17.01zm27.04 143.59l28.06-18.87-14.14-16.83-22.52 12.19 8.6 23.51z"/><path class="d" d="M93.24 213.21l27.97-18.65-14.15-16.83-22.51 12.19 8.69 23.29z"/><path class="f" d="M210.66 97.28l28.06-18.87-14.15-16.83-22.51 12.2 8.6 23.5z"/><path class="g" d="M92.73 94.94l-54.22 34.51 93.42 40.14-10.64 24.75-135.96-57.79-25.48 6.37L71.52 74.75l27.78-17.2"/><path class="g" d="M99.31 57.55l155-96 29.21 12.55-44.81 104.31-28.38-12.18 3.82-8.47c5.82-13.54 12.14-26.87 18.45-40.2 4.1-8.2 8.9-16.65 12.81-24.37a583.93 583.93 0 0 1-54.36 39.15l-70.86 45.1-27.46 17.5m128.85 21.24l-28.88-12.39c-6.23 13.93-7.71 19.12-13.65 32.94l-19.27 44.83h-.08l-10.64 24.76h.09l-33.71 78.47 29.22 12.54 33.71-78.46 46 19.78L235 213.89l-46-19.78z"/></g><path class="h" d="M310.29 58.08a70.84 70.84 0 0 1 3.58-22.75 54.63 54.63 0 0 1 10.32-18.49A47.81 47.81 0 0 1 340.81 4.5 53 53 0 0 1 363.1 0 50.12 50.12 0 0 1 380 2.56a43.65 43.65 0 0 1 12 6.36 38 38 0 0 1 8 8.31 45.82 45.82 0 0 1 4.74 8.46 43.35 43.35 0 0 1 2.26 6.83c.41 1.92.62 3 .62 3.18h-6.84a33.14 33.14 0 0 0-4.51-12.51 34.34 34.34 0 0 0-8.54-9.39 37.94 37.94 0 0 0-11.41-5.9 43.71 43.71 0 0 0-47.14 13.43 49.56 49.56 0 0 0-9 16.55 64.16 64.16 0 0 0-3.11 20.19 64.17 64.17 0 0 0 3.11 20.19 49.33 49.33 0 0 0 9 16.55 42.81 42.81 0 0 0 33.86 15.46 35 35 0 0 0 15.13-3.34 41.52 41.52 0 0 0 12.36-8.85A43.94 43.94 0 0 0 399 85.34a43.27 43.27 0 0 0 3.65-15h6.83a54.39 54.39 0 0 1-4.89 18.32 51.41 51.41 0 0 1-10.09 14.52 44.13 44.13 0 0 1-31.45 13 52.94 52.94 0 0 1-22.29-4.51 47.8 47.8 0 0 1-16.62-12.34 54.58 54.58 0 0 1-10.32-18.48 70.86 70.86 0 0 1-3.58-22.76M449.29 2.63v66.48c0 2.17.1 4.71.32 7.6a47.33 47.33 0 0 0 5 17.93 27.19 27.19 0 0 0 6.14 7.92 29.34 29.34 0 0 0 9.55 5.59 39.69 39.69 0 0 0 13.74 2.1q10.26 0 17.17-2.87a27.42 27.42 0 0 0 11.18-8.24 33 33 0 0 0 6.13-13 72 72 0 0 0 1.86-17.08V2.63h6.83v66.48a77.23 77.23 0 0 1-2.09 18.48 39 39 0 0 1-7.07 14.9 33.6 33.6 0 0 1-13.28 10q-8.31 3.65-20.74 3.65a50.36 50.36 0 0 1-16.78-2.49 35.77 35.77 0 0 1-11.56-6.44 30.3 30.3 0 0 1-7.22-9.08 52.6 52.6 0 0 1-4-10.33 50.6 50.6 0 0 1-1.7-10.09c-.22-3.26-.31-6.13-.31-8.61V2.63zm147.23 0H604l43.8 110.9h-7.3L626.5 78h-53.11l-14.13 35.57H552zm27.8 69.42L600.56 9.31h-.32l-24.68 62.74zm25.94-63.52v-5.9h84.95v5.9h-39.13v105h-6.84v-105h-38.98zm114.31-5.9h46.27a60.25 60.25 0 0 1 13.67 1.48 32.21 32.21 0 0 1 11.18 4.81 23 23 0 0 1 7.53 8.77 30.07 30.07 0 0 1 2.72 13.51q0 11.18-6.29 18.88t-17.47 9.55v.3q7.6.93 12 4a19.72 19.72 0 0 1 6.59 7.61 30.49 30.49 0 0 1 2.8 9.93 96.09 96.09 0 0 1 .62 10.87v6.37a51.55 51.55 0 0 0 .31 5.82 29.34 29.34 0 0 0 1 5.05 11.39 11.39 0 0 0 1.94 3.88h-7.61a20.08 20.08 0 0 1-2.41-9.09q-.24-5.2-.24-10.79t-.47-11.1a23.68 23.68 0 0 0-3-9.85 17.62 17.62 0 0 0-7.84-7q-5.36-2.64-15.14-2.64H771.4v50.48h-6.83zm46.27 54.52a41 41 0 0 0 11.26-1.48 23.91 23.91 0 0 0 8.9-4.57 21.89 21.89 0 0 0 5.9-7.94 27.71 27.71 0 0 0 2.18-11.48 22.62 22.62 0 0 0-2.3-10.68 20.53 20.53 0 0 0-6.21-7.21 25.45 25.45 0 0 0-9-4 45.48 45.48 0 0 0-10.72-1.25H771.4v48.61zm173.79.93a70.84 70.84 0 0 1-3.57 22.76 54.66 54.66 0 0 1-10.32 18.48 48.05 48.05 0 0 1-16.55 12.34 52.42 52.42 0 0 1-22.19 4.51 53 53 0 0 1-22.29-4.51 47.78 47.78 0 0 1-16.61-12.34 54.58 54.58 0 0 1-10.33-18.48 71.17 71.17 0 0 1-3.57-22.76 71.15 71.15 0 0 1 3.57-22.75 54.63 54.63 0 0 1 10.33-18.49A47.79 47.79 0 0 1 909.69 4.5 53 53 0 0 1 932 0a52.44 52.44 0 0 1 22.21 4.5 48.07 48.07 0 0 1 16.55 12.34 54.71 54.71 0 0 1 10.32 18.49 70.82 70.82 0 0 1 3.57 22.75m-98.62 0a64.35 64.35 0 0 0 3.11 20.19 49.44 49.44 0 0 0 9 16.55A42.78 42.78 0 0 0 932 110.27a43 43 0 0 0 19.34-4.19 43.9 43.9 0 0 0 14.36-11.27 49.66 49.66 0 0 0 9-16.55 64.49 64.49 0 0 0 3.1-20.19 64.49 64.49 0 0 0-3.1-20.19 49.9 49.9 0 0 0-9-16.55 43.71 43.71 0 0 0-14.36-11.25A42.9 42.9 0 0 0 932 5.9a42.82 42.82 0 0 0-33.85 15.44 49.67 49.67 0 0 0-9 16.55A64.35 64.35 0 0 0 886 58.08M310.29 196.37a70.85 70.85 0 0 1 3.58-22.76 54.74 54.74 0 0 1 10.32-18.49 48 48 0 0 1 16.62-12.34 53.12 53.12 0 0 1 22.29-4.5 50.12 50.12 0 0 1 16.9 2.56 43.4 43.4 0 0 1 12 6.37 37.87 37.87 0 0 1 8 8.3 46.56 46.56 0 0 1 4.8 8.49 43.25 43.25 0 0 1 2.26 6.83c.41 1.93.62 3 .62 3.19h-6.84a33.05 33.05 0 0 0-4.51-12.5 34.33 34.33 0 0 0-8.54-9.39 37.69 37.69 0 0 0-11.41-5.9 43 43 0 0 0-13.28-2 42.81 42.81 0 0 0-33.86 15.45 49.41 49.41 0 0 0-9 16.54 67.07 67.07 0 0 0 0 40.38 49.58 49.58 0 0 0 9 16.55 42.86 42.86 0 0 0 33.86 15.44 35 35 0 0 0 15.13-3.34 41.26 41.26 0 0 0 12.36-8.84 44 44 0 0 0 8.41-12.79 43.2 43.2 0 0 0 3.65-15h6.83a54.4 54.4 0 0 1-4.84 18.38 51.3 51.3 0 0 1-10.09 14.53 44.55 44.55 0 0 1-14.22 9.47 43.81 43.81 0 0 1-17.23 3.41 53 53 0 0 1-22.29-4.5 47.8 47.8 0 0 1-16.62-12.34 54.51 54.51 0 0 1-10.32-18.49 70.79 70.79 0 0 1-3.58-22.75m139-55.41v66.48c0 2.17.1 4.72.32 7.61a47.48 47.48 0 0 0 5 17.94 27.18 27.18 0 0 0 6.14 7.92 29.29 29.29 0 0 0 9.55 5.59 39.69 39.69 0 0 0 13.74 2.09q10.26 0 17.17-2.87a27.52 27.52 0 0 0 11.18-8.23 33 33 0 0 0 6.13-13 72.09 72.09 0 0 0 1.86-17.09v-66.44h6.83v66.48a77.17 77.17 0 0 1-2.09 18.48 39 39 0 0 1-7.07 14.91 33.6 33.6 0 0 1-13.28 10q-8.31 3.63-20.74 3.64A50.36 50.36 0 0 1 467.3 252a35.79 35.79 0 0 1-11.56-6.45 30.16 30.16 0 0 1-7.22-9.08 52.47 52.47 0 0 1-4-10.32 50.56 50.56 0 0 1-1.7-10.09c-.22-3.27-.31-6.14-.31-8.62v-66.52zm147.23 0H604l43.8 110.89h-7.3l-14-35.56h-53.11l-14.13 35.56H552zm27.8 69.42l-23.76-62.74h-.32l-24.69 62.74zm50.01-69.42h46.28a60.91 60.91 0 0 1 13.66 1.47 32.46 32.46 0 0 1 11.18 4.81A23.24 23.24 0 0 1 753 156a30 30 0 0 1 2.72 13.5q0 11.2-6.29 18.88T732 197.92v.31q7.6.93 12 4a19.86 19.86 0 0 1 6.59 7.61 30.67 30.67 0 0 1 2.8 9.94 95.87 95.87 0 0 1 .62 10.87v6.36a51.18 51.18 0 0 0 .31 5.82 28.39 28.39 0 0 0 1 5.05 11.18 11.18 0 0 0 1.94 3.88h-7.61a20.11 20.11 0 0 1-2.4-9.08q-.24-5.2-.24-10.79t-.46-11.1a23.87 23.87 0 0 0-3-9.86 17.71 17.71 0 0 0-7.84-7q-5.37-2.64-15.15-2.64h-39.39v50.48h-6.83zm46.28 54.51a41 41 0 0 0 11.26-1.43 24 24 0 0 0 8.93-4.58 21.62 21.62 0 0 0 5.9-7.92 27.79 27.79 0 0 0 2.18-11.5 22.57 22.57 0 0 0-2.33-10.63 20.62 20.62 0 0 0-6.21-7.22 25.4 25.4 0 0 0-9-4 45.36 45.36 0 0 0-10.71-1.24h-39.46v48.6zm58.09-48.6v-5.91h84.95v5.91h-39.14v104.98h-6.83V146.83H778.7zm205.16 49.54a70.78 70.78 0 0 1-3.58 22.75A54.48 54.48 0 0 1 970 237.61 48 48 0 0 1 953.42 250a57.24 57.24 0 0 1-44.49 0 47.79 47.79 0 0 1-16.62-12.34A54.4 54.4 0 0 1 882 219.12a74.26 74.26 0 0 1 0-45.51 54.63 54.63 0 0 1 10.33-18.49 47.94 47.94 0 0 1 16.62-12.34 57.22 57.22 0 0 1 44.49 0A48.18 48.18 0 0 1 970 155.13a54.71 54.71 0 0 1 10.32 18.49 70.84 70.84 0 0 1 3.58 22.76m-98.62 0a64.35 64.35 0 0 0 3.11 20.19 49.7 49.7 0 0 0 9 16.55 42.86 42.86 0 0 0 33.86 15.44 42.92 42.92 0 0 0 19.34-4.19 43.82 43.82 0 0 0 14.36-11.25 49.89 49.89 0 0 0 9-16.55 67.18 67.18 0 0 0 0-40.38 49.72 49.72 0 0 0-9-16.54 43.85 43.85 0 0 0-14.36-11.26 42.94 42.94 0 0 0-19.34-4.19 42.81 42.81 0 0 0-33.86 15.45 49.52 49.52 0 0 0-9 16.54 64.37 64.37 0 0 0-3.11 20.2m204.19-23.79a29.74 29.74 0 0 0-3-12.42 26.17 26.17 0 0 0-7.38-8.85A32.24 32.24 0 0 0 1068 146a52.79 52.79 0 0 0-14.06-1.78 50.74 50.74 0 0 0-10 1.09 31.56 31.56 0 0 0-9.93 3.8 22.54 22.54 0 0 0-7.53 7.3 20.69 20.69 0 0 0-3 11.41q0 6.66 3.26 10.87a23.73 23.73 0 0 0 8.54 6.75 55.31 55.31 0 0 0 12.11 4.11q6.84 1.55 13.82 3 7.14 1.41 13.89 3.34a47.6 47.6 0 0 1 12.11 5.28 25.94 25.94 0 0 1 8.62 8.7c2.17 3.56 3.26 8 3.26 13.43q0 8.7-3.73 14.59a31.34 31.34 0 0 1-9.4 9.62 38.7 38.7 0 0 1-12.57 5.36 57.66 57.66 0 0 1-13.29 1.63 76.57 76.57 0 0 1-18.33-2.1 41 41 0 0 1-14.9-6.82 33 33 0 0 1-10-12.19q-3.65-7.46-3.49-18.18h6.83q-.47 9.18 2.64 15.46a28 28 0 0 0 8.62 10.33 35.88 35.88 0 0 0 13 5.82 67.61 67.61 0 0 0 15.69 1.78 49.77 49.77 0 0 0 10.63-1.24 32.83 32.83 0 0 0 10.42-4.19 25.7 25.7 0 0 0 7.92-7.77 21.52 21.52 0 0 0 3.18-12.1q0-7-3.26-11.43a24.12 24.12 0 0 0-8.62-7.14 55.61 55.61 0 0 0-12.11-4.35q-6.75-1.62-13.89-3t-13.88-3.38a47.35 47.35 0 0 1-12.11-5 25.94 25.94 0 0 1-8.54-8.23q-3.26-5-3.26-13a26.25 26.25 0 0 1 3.33-13.58 27.3 27.3 0 0 1 8.7-9.17 38.62 38.62 0 0 1 12-5.12 55.42 55.42 0 0 1 13.2-1.63 64.7 64.7 0 0 1 16.23 1.94 38.71 38.71 0 0 1 13.2 6.05 30.48 30.48 0 0 1 9.08 10.64 37.55 37.55 0 0 1 3.88 15.69z"/><path class="d" d="M210.34 66.23l28.38 12.18-28.06 18.87-28.38-12.18 28.06-18.87zm-40.97 177.74l9-25.1 46.04 19.77-28.06 18.86-26.98-13.53z"/></svg>