<svg xmlns="http://www.w3.org/2000/svg" xmlns:xlink="http://www.w3.org/1999/xlink" width="1024" height="266.987" viewBox="0 0 1024 266.987"><path fill="#97959B" d="M483.125 103.963c-7.024 6.592-17.03 9.885-30.018 9.885-13.277 0-23.646-3.148-31.101-9.451-7.457-6.301-11.185-16.332-11.185-30.092V8.496h13.71v65.809c0 9.236 2.454 16.236 7.36 21 4.907 4.762 11.979 7.143 21.215 7.143 8.753 0 15.417-2.381 19.988-7.143 4.569-4.764 6.855-11.764 6.855-21V8.496h13.71v65.809c.001 13.183-3.513 23.068-10.534 29.658zm0 128.226c-7.024 6.592-17.03 9.886-30.018 9.886-13.277 0-23.646-3.149-31.101-9.452-7.457-6.301-11.185-16.331-11.185-30.091v-65.809h13.71v65.809c0 9.236 2.454 16.236 7.36 20.999 4.907 4.762 11.979 7.144 21.215 7.144 8.753 0 15.417-2.382 19.988-7.144 4.569-4.763 6.855-11.763 6.855-20.999v-65.809h13.71v65.809c.001 13.183-3.513 23.069-10.534 29.657zM358.456 24.002c-5.245-3.654-11.473-5.484-18.689-5.484-6.158 0-11.426 1.154-15.803 3.465-4.379 2.309-7.987 5.412-10.824 9.309-2.839 3.896-4.932 8.348-6.278 13.35-1.349 5.002-2.021 10.199-2.021 15.586 0 5.869.672 11.426 2.021 16.668 1.346 5.246 3.438 9.814 6.278 13.711 2.836 3.896 6.469 6.998 10.896 9.309 4.424 2.309 9.716 3.463 15.875 3.463 4.521 0 8.537-.744 12.05-2.236 3.511-1.49 6.542-3.559 9.092-6.205 2.548-2.646 4.546-5.797 5.989-9.453 1.443-3.656 2.309-7.6 2.598-11.834h13.71c-1.349 12.988-5.822 23.09-13.421 30.307-7.602 7.215-17.993 10.822-31.173 10.822-7.987 0-14.961-1.369-20.926-4.111-5.966-2.742-10.92-6.518-14.865-11.33-3.946-4.809-6.904-10.484-8.875-17.029-1.973-6.541-2.958-13.566-2.958-21.07s1.058-14.551 3.175-21.143c2.115-6.59 5.218-12.34 9.308-17.246 4.088-4.906 9.187-8.779 15.298-11.617 6.109-2.838 13.108-4.258 20.999-4.258 5.387 0 10.485.723 15.297 2.164 4.81 1.443 9.092 3.561 12.844 6.352 3.752 2.791 6.878 6.277 9.381 10.463 2.501 4.186 4.136 9.02 4.907 14.504h-13.71c-1.541-7.314-4.932-12.799-10.175-16.457zm0 130.087c-5.245-3.655-11.473-5.484-18.689-5.484-6.158 0-11.426 1.154-15.803 3.464-4.379 2.309-7.987 5.412-10.824 9.309-2.839 3.896-4.932 8.348-6.278 13.35-1.349 5.003-2.021 10.199-2.021 15.586 0 5.87.672 11.426 2.021 16.669 1.346 5.245 3.438 9.813 6.278 13.71 2.836 3.896 6.469 6.999 10.896 9.309 4.424 2.31 9.716 3.464 15.875 3.464 4.521 0 8.537-.744 12.05-2.237 3.511-1.49 6.542-3.559 9.092-6.205 2.548-2.646 4.546-5.796 5.989-9.453 1.443-3.655 2.309-7.6 2.598-11.834h13.71c-1.349 12.988-5.822 23.091-13.421 30.307-7.602 7.216-17.993 10.823-31.173 10.823-7.987 0-14.961-1.37-20.926-4.112-5.966-2.742-10.92-6.518-14.865-11.329-3.946-4.81-6.904-10.485-8.875-17.029-1.973-6.542-2.958-13.566-2.958-21.07 0-7.505 1.058-14.552 3.175-21.143 2.115-6.59 5.218-12.34 9.308-17.246 4.088-4.907 9.187-8.779 15.298-11.618 6.109-2.837 13.108-4.257 20.999-4.257 5.387 0 10.485.722 15.297 2.164 4.81 1.443 9.092 3.561 12.844 6.351 3.752 2.791 6.878 6.277 9.381 10.463 2.501 4.186 4.136 9.02 4.907 14.504h-13.71c-1.541-7.315-4.932-12.799-10.175-16.456zM567.907 9.426l40.265 103.043h-15.153l-11.258-31.027h-43.584l-11.545 31.027h-13.998L552.753 9.426h15.154zm9.526 60.469l-17.175-48.057h-.288l-17.463 48.057h34.926zm-9.526 67.756l40.265 103.043h-15.153l-11.258-31.028h-43.584l-11.545 31.028h-13.998l40.119-103.043h15.154zm9.526 60.469l-17.175-48.058h-.288l-17.463 48.058h34.926zm27.414-177.149V9.426h82.406v11.545h-34.348v91.498h-13.711V20.971h-34.347zm118.004 129.157v-11.545h82.406v11.545h-34.348v91.498h-13.711v-91.498h-34.347zm36.23-140.702c9.813 0 17.484 2.406 23.019 7.217 5.531 4.812 8.298 11.4 8.298 19.771 0 6.254-1.42 11.738-4.258 16.451-2.838 4.715-7.385 7.938-13.637 9.67v.289c2.98.576 5.411 1.539 7.287 2.887 1.877 1.348 3.367 2.957 4.475 4.834 1.104 1.877 1.923 3.969 2.453 6.277a66.943 66.943 0 0 1 1.227 7.217c.191 2.502.336 5.051.434 7.648a65.86 65.86 0 0 0 .721 7.648 46.594 46.594 0 0 0 1.66 7.145c.721 2.262 1.804 4.258 3.247 5.988h-15.298c-.963-1.057-1.612-2.5-1.948-4.328-.339-1.828-.555-3.873-.649-6.135-.098-2.26-.194-4.689-.289-7.287a50.584 50.584 0 0 0-.865-7.65 75.866 75.866 0 0 0-1.443-7.143c-.578-2.26-1.493-4.232-2.742-5.918-1.252-1.682-2.887-3.029-4.906-4.041-2.021-1.01-4.716-1.514-8.082-1.514H724.3v44.016h-13.71V9.426h48.491zm2.886 46.76c2.887-.48 5.412-1.418 7.577-2.814 2.164-1.395 3.896-3.27 5.195-5.629 1.299-2.355 1.948-5.412 1.948-9.164 0-5.195-1.443-9.428-4.329-12.699-2.887-3.27-7.555-4.908-14-4.908H724.3v35.936h28.575c3.175-.002 6.206-.24 9.092-.722zm-85.58 81.465c9.813 0 17.485 2.406 23.019 7.216 5.531 4.812 8.299 11.401 8.299 19.771 0 6.255-1.421 11.739-4.258 16.452-2.839 4.715-7.385 7.938-13.638 9.67v.288c2.981.577 5.411 1.54 7.288 2.887 1.876 1.349 3.366 2.958 4.474 4.834 1.104 1.877 1.923 3.969 2.454 6.278a66.967 66.967 0 0 1 1.227 7.216c.191 2.503.336 5.051.433 7.648.095 2.599.336 5.148.722 7.649a46.726 46.726 0 0 0 1.659 7.144c.722 2.262 1.804 4.258 3.247 5.989h-15.297c-.963-1.058-1.613-2.501-1.949-4.329-.338-1.827-.555-3.872-.648-6.134-.098-2.26-.195-4.69-.289-7.288a50.685 50.685 0 0 0-.866-7.649 75.893 75.893 0 0 0-1.442-7.144c-.578-2.259-1.494-4.232-2.742-5.917-1.252-1.682-2.887-3.03-4.907-4.041-2.021-1.01-4.716-1.515-8.082-1.515H641.61v44.017h-13.711V137.651h48.488zm2.885 46.759c2.887-.48 5.412-1.418 7.578-2.814 2.164-1.394 3.896-3.27 5.195-5.628 1.299-2.356 1.947-5.412 1.947-9.164 0-5.195-1.443-9.428-4.329-12.7-2.886-3.27-7.554-4.907-13.999-4.907h-34.059v35.936h28.574c3.177-.001 6.208-.24 9.093-.723zM820.35 40.674c2.067-6.496 5.171-12.242 9.309-17.246 4.136-5.002 9.284-8.996 15.442-11.979 6.156-2.982 13.324-4.475 21.503-4.475 8.177 0 15.345 1.492 21.503 4.475 6.156 2.982 11.305 6.977 15.442 11.979 4.136 5.004 7.239 10.75 9.309 17.246 2.067 6.494 3.103 13.254 3.103 20.275 0 7.025-1.035 13.783-3.103 20.277-2.069 6.494-5.173 12.244-9.309 17.246-4.138 5.004-9.286 8.973-15.442 11.906-6.158 2.934-13.326 4.4-21.503 4.4-8.179 0-15.347-1.467-21.503-4.4-6.158-2.934-11.307-6.902-15.442-11.906-4.138-5.002-7.241-10.752-9.309-17.246-2.069-6.494-3.103-13.252-3.103-20.277 0-7.021 1.033-13.781 3.103-20.275zm12.628 35.646c1.346 5.051 3.463 9.596 6.35 13.637s6.59 7.289 11.113 9.742c4.521 2.453 9.908 3.68 16.163 3.68 6.253 0 11.64-1.227 16.163-3.68 4.521-2.453 8.227-5.701 11.113-9.742s5.002-8.586 6.35-13.637a59.467 59.467 0 0 0 0-30.74c-1.348-5.051-3.463-9.598-6.35-13.639s-6.592-7.287-11.113-9.74c-4.523-2.455-9.91-3.682-16.163-3.682-6.255 0-11.643 1.227-16.163 3.682-4.523 2.453-8.227 5.699-11.113 9.74s-5.004 8.588-6.35 13.639c-1.349 5.051-2.021 10.174-2.021 15.369s.672 10.319 2.021 15.371zm-12.628 94.44c2.067-6.495 5.171-12.242 9.309-17.246 4.136-5.002 9.284-8.995 15.442-11.979 6.156-2.981 13.324-4.474 21.503-4.474 8.177 0 15.345 1.492 21.503 4.474 6.156 2.983 11.305 6.977 15.442 11.979 4.136 5.004 7.239 10.751 9.309 17.246 2.067 6.494 3.103 13.254 3.103 20.276 0 7.024-1.035 13.782-3.103 20.276-2.069 6.494-5.173 12.245-9.309 17.246-4.138 5.004-9.286 8.973-15.442 11.906-6.158 2.934-13.326 4.401-21.503 4.401-8.179 0-15.347-1.468-21.503-4.401-6.158-2.934-11.307-6.902-15.442-11.906-4.138-5.001-7.241-10.752-9.309-17.246-2.069-6.494-3.103-13.252-3.103-20.276 0-7.022 1.033-13.782 3.103-20.276zm12.628 35.646c1.346 5.051 3.463 9.597 6.35 13.638s6.59 7.288 11.113 9.741c4.521 2.454 9.908 3.681 16.163 3.681 6.253 0 11.64-1.227 16.163-3.681 4.521-2.453 8.227-5.7 11.113-9.741s5.002-8.587 6.35-13.638a59.454 59.454 0 0 0 0-30.74c-1.348-5.051-3.463-9.597-6.35-13.638s-6.592-7.288-11.113-9.741c-4.523-2.454-9.91-3.681-16.163-3.681-6.255 0-11.643 1.227-16.163 3.681-4.523 2.453-8.227 5.7-11.113 9.741s-5.004 8.587-6.35 13.638c-1.349 5.052-2.021 10.175-2.021 15.37s.672 10.318 2.021 15.37zm165.215-52.82c-4.571-3.319-10.416-4.979-17.534-4.979-2.887 0-5.727.289-8.516.866-2.791.577-5.268 1.54-7.432 2.886-2.165 1.349-3.896 3.153-5.195 5.412-1.299 2.262-1.949 5.076-1.949 8.443 0 3.175.938 5.75 2.814 7.721 1.877 1.973 4.377 3.585 7.505 4.835 3.125 1.251 6.661 2.286 10.606 3.103a469.12 469.12 0 0 1 12.051 2.67c4.089.963 8.105 2.093 12.051 3.392 3.944 1.299 7.48 3.055 10.607 5.268a25.114 25.114 0 0 1 7.505 8.37c1.876 3.369 2.813 7.602 2.813 12.7 0 5.484-1.227 10.174-3.68 14.071-2.453 3.896-5.605 7.071-9.453 9.524-3.849 2.453-8.153 4.235-12.916 5.34s-9.502 1.659-14.215 1.659c-5.773 0-11.234-.721-16.381-2.164-5.148-1.443-9.669-3.631-13.565-6.566-3.897-2.934-6.978-6.687-9.236-11.257-2.262-4.568-3.392-9.98-3.392-16.236h12.988c0 4.33.842 8.06 2.525 11.185 1.683 3.128 3.896 5.701 6.639 7.722s5.939 3.513 9.598 4.474a43.994 43.994 0 0 0 11.257 1.443c3.078 0 6.181-.289 9.309-.866 3.125-.577 5.939-1.562 8.442-2.958a16.81 16.81 0 0 0 6.062-5.701c1.538-2.403 2.31-5.484 2.31-9.236 0-3.559-.939-6.444-2.814-8.659-1.877-2.212-4.379-4.016-7.505-5.412-3.128-1.394-6.663-2.525-10.607-3.391-3.946-.866-7.962-1.755-12.051-2.67a162.891 162.891 0 0 1-12.05-3.176c-3.947-1.201-7.482-2.789-10.607-4.762-3.128-1.972-5.629-4.521-7.505-7.649-1.876-3.125-2.814-7.047-2.814-11.762 0-5.195 1.058-9.691 3.175-13.494 2.115-3.799 4.93-6.927 8.443-9.38 3.511-2.454 7.504-4.28 11.979-5.484a52.867 52.867 0 0 1 13.781-1.804c5.291 0 10.197.627 14.721 1.876 4.521 1.251 8.49 3.225 11.906 5.917 3.414 2.694 6.109 6.086 8.082 10.174 1.971 4.091 3.053 8.973 3.247 14.648h-12.988c-.772-7.409-3.442-12.774-8.011-16.093z"/><path fill="#7A797D" d="M196.911 68.529l26.375 11.322-26.071 17.527-26.373-11.318 26.069-17.531z"/><path fill="#88A727" d="M1.479 7.174h250.228v250.222H1.479V7.174z"/><path fill="#6D0F38" d="M1.479 7.174h250.228v250.222H1.479V7.174z"/><path fill="#7A797D" d="M1.475 117v50.88l86.633 37.215 9.879-23-72.358-58.704 36.425-16.389-20.198-13.027L1.475 117z"/><defs><path id="a" d="M1.475 7.174h250.233v250.222H1.475z"/></defs><clipPath id="b"><use xlink:href="#a" overflow="visible"/></clipPath><path clip-path="url(#b)" fill="#9B989E" d="M152.938 54.574c17.94-11.309 34.68-23.65 50.507-36.379-3.634 7.168-8.092 15.021-11.912 22.639-5.863 12.387-11.732 24.773-17.134 37.354-1.191 2.625-2.37 5.246-3.553 7.873l26.363 11.318L238.839.494l-27.141-11.66-144.023 89.16 19.429 18.49 65.834-41.91zm32.68 69.787L158.79 112.85c-5.781 12.953-11.49 25.863-17.005 38.722l-17.899 41.65-.089-.031-9.881 23.002.086.031-31.325 72.9 27.143 11.661 31.325-72.901 42.783 18.383 9.874-29.681-34.668-19.812 26.484-72.413z"/><defs><path id="c" d="M1.475 7.174h250.233v250.222H1.475z"/></defs><clipPath id="d"><use xlink:href="#c" overflow="visible"/></clipPath><path clip-path="url(#d)" fill="#9B989E" d="M158.79 112.85l21.739-9.42 1.467 17.934-10.152 8.566-6.338-1.27-6.716-15.81zm25.13 133.417l26.07-17.527-13.144-15.643-20.922 11.331 7.996 21.839z"/><defs><path id="e" d="M1.475 7.174h250.233v250.222H1.475z"/></defs><clipPath id="f"><use xlink:href="#e" overflow="visible"/></clipPath><path clip-path="url(#f)" fill="#7A797D" d="M88.107 205.095l25.991-17.326-13.146-15.64-20.922 11.33 8.077 21.636z"/><defs><path id="g" d="M1.475 7.174h250.233v250.222H1.475z"/></defs><clipPath id="h"><use xlink:href="#g" overflow="visible"/></clipPath><path clip-path="url(#h)" fill="#9B989E" d="M197.214 97.379l26.071-17.527-13.145-15.643-20.924 11.33 7.998 21.84z"/><defs><path id="i" d="M1.475 7.174h250.233v250.222H1.475z"/></defs><clipPath id="j"><use xlink:href="#i" overflow="visible"/></clipPath><path clip-path="url(#j)" fill="#FFF" d="M87.638 95.205l-50.379 32.068 86.799 37.3-9.885 22.992-126.334-53.698-23.674 5.922L67.926 76.447 93.74 60.465"/><defs><path id="k" d="M1.475 7.174h250.233v250.222H1.475z"/></defs><clipPath id="l"><use xlink:href="#k" overflow="visible"/></clipPath><path clip-path="url(#l)" fill="#FFF" d="M93.746 60.465l144.018-89.16 27.142 11.66-41.626 96.887-26.369-11.322 3.554-7.873c5.409-12.578 11.277-24.963 17.146-37.352 3.808-7.621 8.268-15.471 11.906-22.639-15.828 12.727-32.572 25.07-50.508 36.379l-65.838 41.91-25.532 16.25m119.716 19.734l-26.828-11.51c-5.788 12.939-7.164 17.762-12.68 30.607l-17.903 41.651-.075-.031-9.884 23.004.08.031-31.325 72.912 27.148 11.65 31.319-72.902 42.783 18.386 9.88-23.005-42.777-18.381 30.262-72.412z"/><path fill="#7A797D" d="M158.842 233.679l8.365-23.324 42.783 18.375-26.07 17.526-25.078-12.577z"/><title>logoArtboard 1</title></svg>