<svg xmlns="http://www.w3.org/2000/svg" viewBox="0 0 576.32 849.88"><defs><style>.a{fill:none}.b{clip-path:url(#a)}.c{fill:url(#b)}.d{fill:#fff}</style><clipPath id="a"><path class="a" d="M0 0h576.32v849.88H0z"/></clipPath><linearGradient id="b" x1="-123.83" y1="720.29" x2="-120.55" y2="720.29" gradientTransform="matrix(0 -256.19 -256.19 0 184822.03 -30879.67)" gradientUnits="userSpaceOnUse"><stop offset="0" stop-color="#b0d07d"/><stop offset=".36" stop-color="#86c598"/><stop offset="1" stop-color="#34aecc"/></linearGradient></defs><title>logoArtboard 1</title><g class="b"><path class="c" d="M0 .02h576.32v849.86H0z"/></g><path class="d" d="M52.15 117.95v192.03h98.24v19.45H32.72V117.95h19.43zm263.16.05v211.42H296v-52.86h-83.92l-33.43 52.86H155.7L289.4 118zm-91 139.16H296V143.87zM131.23 557a86.27 86.27 0 0 0 48-14.28v22.39a105.84 105.84 0 0 1-48 11.33q-44.61 0-76.13-31.66-31.66-31.5-31.66-76.12t31.66-76.13q31.53-31.67 76.13-31.67a106.23 106.23 0 0 1 48 11.33v22.39a86.26 86.26 0 0 0-48-14.28q-36.51 0-62.43 25.92t-25.91 62.44q0 36.53 25.91 62.43T131.23 557M218 544.93q-31.69-31.5-31.67-76.13T218 392.53Q249.48 361 294.1 361t76.28 31.52q31.53 31.66 31.53 76.26t-31.53 76.13q-31.67 31.66-76.28 31.66T218 544.93m13.69-138.56q-25.93 25.91-25.92 62.43t25.92 62.44q25.89 25.92 62.43 25.92t62.43-25.92q25.91-25.92 25.92-62.44t-25.92-62.43q-25.93-25.91-62.43-25.92t-62.43 25.92M472.57 576.3A80.81 80.81 0 0 1 435 565.56q-19.44-11.19-26.36-29.91l18.29-6.65q4.7 12.64 19.16 20.45a63.84 63.84 0 0 0 27.37 7.55q22.55.88 37.71-11.34 13.51-10.89 14.27-25.61 1.18-27.68-50.65-42.27-37.41-10.46-53.45-29.15-12.24-14.28-11.49-32.11 1.32-30.18 25.62-45.05c12.84-7.87 28.43-11.35 46.67-10.46q33 1.47 52.72 22.68l-14.27 13.26q-14.28-15.47-39.31-16.65-21.54-.88-35.65 7.66-15.47 9.58-16.35 29.46-1.21 27.08 50.66 41.67 37.41 10.45 53.46 29.3 12.22 14.43 11.49 32.41-1.19 23.71-21.51 40-19.44 15.6-47 15.61c-1.27 0-2.56 0-3.83-.14M261 607.89v211.46h-19.28v-52.87h-83.93l-33.44 52.87h-23l133.7-211.46zM170 747h71.71V633.81zM32.72 818.3V606.83h117.67v19.44H52.15V818.3H32.72z"/></svg>